# xmcd
#
# Track frame offsets:
#  150
#  18680
#  40247
#  61110
#  76380
#  99107
#  114540
#  139295
#  152130
#  176055
#
# Disc length: 3357 seconds
#
# Revision: 0
# Processed by: cddbd v1.5.1PL0 Copyright (c) Steve Scherf et al.
# Submitted via: Collectorz.com_Music_Collector 6.9
#
DISCID=7d0d1b0a
DTITLE=John Froud and The PK's - Hair Today...
DYEAR=1997
DGENRE=Blues - Christian - Worship
TTITLE0=Giggle
TTITLE1=God's Sorrow
TTITLE2=Dreams
TTITLE3=This Thing Called Love
TTITLE4=Read It In The Book
TTITLE5=There Isn't Anybody
TTITLE6=Heaven Starts Here
TTITLE7=She Said
TTITLE8=Hero
TTITLE9=Too Long A Winter
EXTD=
EXTT0=
EXTT1=
EXTT2=
EXTT3=
EXTT4=
EXTT5=
EXTT6=
EXTT7=
EXTT8=
EXTT9=
PLAYORDER=
